<?xml version="1.0" encoding="UTF-8"?>
<svg id="Layer_1" data-name="Layer 1" xmlns="http://www.w3.org/2000/svg" viewBox="0 0 29.8 30.03">
  <defs>
    <style>
      .cls-1 {
        fill: #6a3d72;
      }

      .cls-2 {
        fill: #e1b2d2;
      }

      .cls-3 {
        fill: #fff;
        font-family: MyriadPro-Semibold, 'Myriad Pro';
        font-size: 20.11px;
        font-weight: 600;
      }
    </style>
  </defs>
  <rect class="cls-1" x="4.36" y="4.36" width="21.07" height="21.07" transform="translate(-6.17 14.9) rotate(-45)"/>
  <polygon class="cls-2" points="4.17 14.81 4.1 14.88 15 25.78 25.9 14.88 25.83 14.81 4.17 14.81"/>
  <polygon class="cls-2" points="7.52 10.66 5.83 12.81 23.77 12.81 22.08 10.66 7.52 10.66"/>
  <polygon class="cls-2" points="10.41 7.19 8.55 9.6 20.9 9.6 19.04 7.19 10.41 7.19"/>
  <circle class="cls-1" cx="9.9" cy="16.81" r="1"/>
  <circle class="cls-1" cx="14.9" cy="16.81" r="1"/>
  <circle class="cls-1" cx="19.9" cy="16.81" r="1"/>
  <circle class="cls-1" cx="17.9" cy="19.81" r="1"/>
  <circle class="cls-1" cx="14.9" cy="22.81" r="1"/>
  <circle class="cls-1" cx="11.9" cy="19.81" r="1"/>
  <text class="cls-3" transform="translate(9.9 25)"><tspan x="0" y="0">2</tspan></text>
</svg>