<svg class="brxe-svg hero__svg" id="brxe-wkrzua" xmlns="http://www.w3.org/2000/svg" width="1070" height="1070" viewBox="0 0 1070 1070" fill="none" style="
"><g clip-path="url(#clip0_13704_15217)"><path d="M156.68 156.682H913.316V913.318H156.68V156.682Z" stroke="url(#paint0_linear_13704_15217)" stroke-width="0.779315"></path><path d="M0.551025 535L535 0.550781L1069.45 535L535 1069.45L0.551025 535Z" stroke="url(#paint1_linear_13704_15217)" stroke-width="0.779315"></path><path d="M535.001 1069.61C830.258 1069.61 1069.61 830.258 1069.61 535.001C1069.61 239.744 830.258 0.390625 535.001 0.390625C239.744 0.390625 0.390625 239.744 0.390625 535.001C0.390625 830.258 239.744 1069.61 535.001 1069.61Z" stroke="url(#paint2_linear_13704_15217)" stroke-width="0.779315"></path><path d="M156.996 156.996L535 0.421875L913.007 156.996L1069.58 535L913.007 913.007L535 1069.58L156.996 913.007L0.421875 535L156.996 156.996Z" stroke="url(#paint3_linear_13704_15217)" stroke-width="0.779315"></path><path d="M913.709 913.709L156.293 156.293" stroke="url(#paint4_linear_13704_15217)" stroke-width="0.779315"></path><path d="M156.293 913.709L913.709 156.293" stroke="url(#paint5_linear_13704_15217)" stroke-width="0.779315"></path></g><defs><linearGradient id="paint0_linear_13704_15217" x1="534.998" y1="156.682" x2="534.998" y2="913.318" gradientUnits="userSpaceOnUse"><stop stop-color="white"></stop><stop offset="0.475" stop-color="white" stop-opacity="0"></stop></linearGradient><linearGradient id="paint1_linear_13704_15217" x1="534.999" y1="0.550781" x2="534.999" y2="1069.45" gradientUnits="userSpaceOnUse"><stop stop-color="white"></stop><stop offset="0.475" stop-color="white" stop-opacity="0"></stop></linearGradient><linearGradient id="paint2_linear_13704_15217" x1="535.001" y1="0.390625" x2="535.001" y2="1069.61" gradientUnits="userSpaceOnUse"><stop stop-color="white"></stop><stop offset="0.475" stop-color="white" stop-opacity="0"></stop></linearGradient><linearGradient id="paint3_linear_13704_15217" x1="535.001" y1="0.421875" x2="535.001" y2="1069.58" gradientUnits="userSpaceOnUse"><stop stop-color="white"></stop><stop offset="0.475" stop-color="white" stop-opacity="0"></stop></linearGradient><linearGradient id="paint4_linear_13704_15217" x1="535.001" y1="156.293" x2="535.001" y2="913.709" gradientUnits="userSpaceOnUse"><stop stop-color="white"></stop><stop offset="0.475" stop-color="white" stop-opacity="0"></stop></linearGradient><linearGradient id="paint5_linear_13704_15217" x1="535.001" y1="156.293" x2="535.001" y2="913.709" gradientUnits="userSpaceOnUse"><stop stop-color="white"></stop><stop offset="0.475" stop-color="white" stop-opacity="0"></stop></linearGradient><clipPath id="clip0_13704_15217"><rect width="1070" height="1070" fill="white"></rect></clipPath></defs></svg>